<?xml version="1.0" encoding="utf-8"?>
<!-- Generator: Adobe Illustrator 16.0.0, SVG Export Plug-In . SVG Version: 6.00 Build 0)  -->
<!DOCTYPE svg PUBLIC "-//W3C//DTD SVG 1.1//EN" "http://www.w3.org/Graphics/SVG/1.1/DTD/svg11.dtd">
<svg version="1.1" id="Layer_1" xmlns="http://www.w3.org/2000/svg" xmlns:xlink="http://www.w3.org/1999/xlink" x="0px" y="0px"
	 width="171px" height="127px" viewBox="0 0 171 127" enable-background="new 0 0 171 127" xml:space="preserve">
<g>
	<path fill="#353535" d="M21.457,94.376c0,0-5.046,11.521-1.877,13.827c3.168,2.305,26.103,16.134,61.597,14.982
		c35.494-1.153,59.774-18.634,63.912-22.858c4.139-4.225,0-9.411,0-9.411l-5.658-8.901c0,0-5.761-6.944-12.964-3.487
		c-7.203,3.458-26.822,19.015-46.976,15.558c-20.153-3.458-42.913-10.083-42.913-10.083S25.341,84.291,21.457,94.376z"/>
	<path fill="#616160" d="M17.046,93.739c0,0-5.046,11.522-1.875,13.826c3.168,2.305,26.103,16.133,61.597,14.982
		c35.493-1.153,59.773-18.632,63.911-22.857c4.139-4.224,0-9.411,0-9.411l-5.658-8.901c0,0-4.032-5.216-11.235-1.758
		c-7.202,3.456-28.551,17.286-48.703,13.828c-20.155-3.456-42.915-10.083-42.915-10.083S20.932,83.652,17.046,93.739z"/>
	<g id="XMLID_1_">
		<g>
			<path fill="#BAE2F2" d="M135.165,80.773c-5.617,0.605-8.363-13.192,2.273-12.534c0-8.787,17.75-11.834,19.09-1.246
				c6.538-1.863,10.651,2.789,7.881,7.935c-0.151,1.414,1.958,0.723,2.207,1.763c-0.236,1.393-2.566,1.575-3.783,1.176
				c0.397,6.26-7.193,10.503-12.609,6.759C148.805,90.659,134.156,87.882,135.165,80.773z"/>
		</g>
		<g>
		</g>
	</g>
	<path fill="#4EC2EC" d="M138.016,42.597c0,0,7.2,3.712,4.858,7.705C140.534,54.294,140.967,45.407,138.016,42.597z"/>
	<path fill="#4EC2EC" d="M142.813,40.889c0,0,9.144,1.662,7.754,3.409C149.177,46.045,148.28,43.029,142.813,40.889z"/>
	<g>
		<path fill="none" d="M5.012,95.689c0,0,77.945,58.915,147.265-14.489"/>
		<path fill="#1C1C1C" d="M30.649,88.2c1.521,0.321,3.538,0.991,6.049,2.011c2.307,0.936,4.313,1.899,6.021,2.89
			c0.488,0.515,0.445,1.478-0.129,2.89c-0.518,1.275-1.076,1.941-1.676,1.995c-0.49,0.276-0.991,0.311-1.504,0.102
			c-0.256-0.103-0.606-0.32-1.049-0.649c-0.444-0.331-0.777-0.54-0.999-0.63c-0.256-0.103-0.482-0.087-0.677,0.052
			c-0.11,0.074-0.237,0.29-0.382,0.646c-0.441,1.087-0.962,2.774-1.563,5.063c-0.601,2.29-1.122,3.977-1.563,5.063
			c-0.373,0.918-0.692,1.412-0.959,1.479c-0.874,0.241-1.925,0.109-3.155-0.39c-1.179-0.479-1.787-1.113-1.824-1.903
			c-0.112-0.264-0.001-0.805,0.331-1.623c0.436-1.074,1.255-2.614,2.458-4.619c1.202-2.004,2.021-3.543,2.458-4.618
			c0.138-0.342,0.184-0.552,0.136-0.63c-0.016-0.305-0.178-0.52-0.485-0.645c-0.24-0.097-0.66-0.188-1.262-0.273
			c-0.603-0.086-1.049-0.188-1.339-0.305c-0.41-0.167-0.743-0.4-0.999-0.703c-0.446-0.518-0.379-1.491,0.202-2.92
			C29.31,89.073,29.948,88.311,30.649,88.2z"/>
		<path fill="#1C1C1C" d="M52.398,100.48c0.977,1.635,1.305,3.945,0.986,6.933c-0.548,2.201-1.095,3.714-1.64,4.542
			c-0.642,0.974-1.707,1.749-3.196,2.326c-1.785,0.04-3.292-0.105-4.522-0.432c-1.336-0.357-2.497-0.943-3.481-1.759
			c-0.719-1.241-1.16-2.36-1.323-3.358c-0.164-0.998-0.064-2.173,0.296-3.527c0.181-0.678,0.44-1.438,0.78-2.283
			c1.094-1.883,1.935-3.177,2.522-3.878c1.171-1.386,2.433-2.147,3.786-2.284C49.421,97.512,51.352,98.751,52.398,100.48z
			 M45.852,107.752c1.443,0.384,2.4-0.305,2.87-2.069c0.162-0.606-0.04-1.175-0.604-1.707c-0.49-0.456-1.051-0.747-1.684-0.878
			c-0.325-0.066-0.758,0.266-1.297,1c-0.448,0.606-0.738,1.12-0.869,1.542C43.934,106.679,44.462,107.382,45.852,107.752z"/>
		<path fill="#1C1C1C" d="M60.7,97.004c1.467,0.155,2.256,0.58,2.369,1.278c0.027,0.096,0.032,0.227,0.014,0.391
			c-0.065,0.624-0.296,1.545-0.692,2.764c-0.396,1.219-0.628,2.149-0.695,2.792c-0.096,0.917-0.013,1.63,0.249,2.14
			c0.078,0.138,0.2,0.215,0.364,0.232c0.11,0.012,0.571-0.098,1.383-0.328c0.812-0.23,1.484-0.317,2.016-0.262
			c0.972,0.102,1.958,0.511,2.958,1.228c1.097,1.209,1.553,2.703,1.367,4.48c-0.186,1.78-0.929,3.297-2.229,4.551
			c-0.476,0.47-1.317,0.799-2.522,0.987c-1.113,0.18-2.284,0.206-3.512,0.077c-1.083-0.113-2.087-0.338-3.016-0.676
			c-1.323-0.472-2.104-1.073-2.342-1.803c-0.451-1.363-0.479-3.925-0.085-7.685c0.234-2.237,0.529-4.264,0.886-6.081
			s0.647-2.907,0.871-3.273C58.415,97.127,59.288,96.856,60.7,97.004z M61.807,112.472c0.376,0.299,0.77,0.433,1.181,0.401
			c1.251-0.092,1.915-0.485,1.987-1.183c0.016-0.146,0.007-0.333-0.025-0.559c-0.107-0.751-0.545-1.169-1.315-1.25
			c-0.22-0.022-0.573-0.022-1.057,0c-0.745,0.033-1.168,0.536-1.27,1.507C61.264,111.812,61.43,112.172,61.807,112.472z"/>
		<path fill="#1C1C1C" d="M74.452,98.546c0.829-0.284,1.685-0.458,2.567-0.523c2.354-0.174,4.383,0.257,6.087,1.295
			c0.698,0.429,1.424,1.503,2.18,3.222c0.845,1.916,1.342,3.876,1.491,5.881c0.199,2.684-0.307,4.968-1.517,6.852
			c-0.497,0.775-1.439,1.419-2.825,1.928c-1.098,0.396-2.236,0.638-3.413,0.726c-2.115,0.156-3.627-0.166-4.537-0.967
			c-0.732-0.89-1.345-4.672-1.84-11.347c-0.234-3.143-0.275-5.012-0.125-5.606C72.672,99.413,73.315,98.928,74.452,98.546z
			 M78.491,109.618c0.219,0.464,0.66,0.671,1.321,0.623c0.625-0.046,1.085-0.339,1.377-0.879c0.243-0.461,0.34-1.023,0.291-1.685
			c-0.137-1.839-1.078-2.694-2.825-2.563c-0.515,0.038-0.751,0.342-0.709,0.912c0.017,0.22,0.059,0.55,0.129,0.989
			c0.069,0.438,0.112,0.768,0.129,0.989C78.264,108.812,78.36,109.35,78.491,109.618z"/>
		<path fill="#1C1C1C" d="M98.791,99.058c1.667,0.919,3.114,2.752,4.342,5.494c0.634,2.178,0.923,3.762,0.87,4.751
			c-0.064,1.164-0.594,2.371-1.591,3.619c-1.522,0.933-2.897,1.566-4.125,1.902c-1.334,0.365-2.631,0.443-3.894,0.233
			c-1.246-0.709-2.19-1.455-2.833-2.234s-1.15-1.846-1.52-3.198c-0.186-0.675-0.343-1.464-0.475-2.364
			c-0.004-2.179,0.072-3.719,0.226-4.622c0.314-1.787,1.021-3.079,2.123-3.879C94.724,97.992,97.016,98.091,98.791,99.058z
			 M96.795,108.637c1.44-0.395,1.919-1.473,1.438-3.232c-0.166-0.605-0.626-0.995-1.381-1.172c-0.652-0.146-1.285-0.116-1.897,0.09
			c-0.315,0.105-0.521,0.61-0.618,1.517c-0.082,0.749-0.073,1.338,0.026,1.77C94.597,108.675,95.408,109.017,96.795,108.637z"/>
		<path fill="#1C1C1C" d="M114.202,108.02c0.332,0.637-0.239,1.315-1.713,2.037c-1.49,0.73-2.431,0.823-2.822,0.275
			c-1.417-1.97-2.867-4.469-4.348-7.494c-1.507-3.074-2.264-5.102-2.271-6.082c-0.117-0.825,0.297-1.469,1.241-1.93
			c0.414-0.204,0.827-0.302,1.239-0.299c0.511-0.005,0.873,0.167,1.084,0.516c0.105,0.215,0.187,0.34,0.244,0.373
			c0.099,0.075,0.251,0.072,0.458-0.009c0.364-0.137,0.617-0.395,0.761-0.772c0.16-0.469,0.386-0.868,0.677-1.195
			c0.499-0.573,1.072-1.018,1.718-1.334c1.208-0.592,2.452-0.706,3.729-0.34c1.278,0.366,2.199,1.146,2.763,2.339
			c0.697,1.089,1.414,2.383,2.148,3.882c1.445,2.95,2.296,5.189,2.552,6.719c-0.022,0.583-0.638,1.171-1.847,1.762
			c-1.093,0.536-1.838,0.564-2.236,0.087c-0.229-0.092-0.565-0.588-1.008-1.492c-0.185-0.377-0.452-0.955-0.802-1.73
			c-0.349-0.776-0.617-1.354-0.802-1.732c-1.28-2.612-2.293-3.654-3.04-3.125c-0.149,0.114-0.54,0.407-1.17,0.879
			c-0.374,0.286-0.452,0.755-0.235,1.407c0.047,0.182,0.262,0.659,0.643,1.437C111.027,101.917,112.04,103.857,114.202,108.02z"/>
		<path fill="#1C1C1C" d="M126.497,102.753c-0.212-0.074-0.686-0.415-1.418-1.024c-0.205-0.442-0.243-0.937-0.114-1.484
			c0.128-0.547,0.395-0.966,0.799-1.257c0.239-0.171,0.524-0.297,0.854-0.376c1.065,0.03,1.994-0.242,2.788-0.813
			c0.733-0.527,1.273-1.244,1.619-2.153c0.363-1.011,0.292-1.869-0.214-2.571c-0.205-0.284-0.47-0.48-0.796-0.586
			c-0.15-0.051-0.3-0.023-0.45,0.085c-0.105,0.075-0.421,0.502-0.952,1.281s-1.035,1.341-1.514,1.685
			c-0.823,0.593-1.847,0.954-3.07,1.084c-1.623-0.171-2.957-0.983-4.001-2.435c-1.023-1.422-1.478-3.047-1.365-4.879
			c0.104-1.528,1.144-3.004,3.119-4.425c0.898-0.646,1.847-1.159,2.847-1.538c1.237-0.458,2.284-0.597,3.14-0.418
			c0.855,0.179,1.875,0.854,3.059,2.024c0.89,0.859,1.702,1.796,2.434,2.814c1.766,2.454,2.791,4.841,3.073,7.16
			c0.335,2.802-0.582,4.984-2.751,6.545c-0.928,0.667-2.081,1.212-3.458,1.636C128.402,103.143,127.192,103.026,126.497,102.753z
			 M125.73,87.768c-0.48,0.027-0.863,0.189-1.149,0.486c-0.874,0.901-1.106,1.637-0.696,2.205c0.086,0.12,0.216,0.253,0.39,0.399
			c0.581,0.492,1.185,0.51,1.814,0.058c0.179-0.128,0.442-0.363,0.788-0.704c0.534-0.52,0.516-1.177-0.055-1.971
			C126.575,87.898,126.211,87.74,125.73,87.768z"/>
	</g>
	<path fill="#4EC2EC" d="M148.262,48.922c0,0,5.977,6.843,3.195,7.411C148.675,56.902,150.763,53.936,148.262,48.922z"/>
	<g>
		<path fill="none" d="M3.137,95.865c0,0,77.944,58.915,147.262-14.487"/>
		<path fill="#FFFFFF" d="M28.935,88.455c1.522,0.318,3.54,0.986,6.053,2.001c2.308,0.934,4.316,1.894,6.025,2.881
			c0.488,0.515,0.447,1.477-0.124,2.89c-0.516,1.276-1.074,1.941-1.673,1.997c-0.49,0.278-0.992,0.312-1.504,0.105
			c-0.256-0.104-0.607-0.321-1.05-0.649c-0.444-0.329-0.777-0.538-1-0.627c-0.256-0.104-0.483-0.086-0.677,0.053
			c-0.11,0.075-0.237,0.291-0.381,0.647c-0.44,1.087-0.958,2.776-1.556,5.065c-0.597,2.29-1.116,3.978-1.555,5.066
			c-0.371,0.918-0.69,1.411-0.957,1.48c-0.873,0.241-1.924,0.111-3.155-0.386c-1.18-0.477-1.789-1.11-1.827-1.899
			c-0.112-0.264-0.003-0.805,0.328-1.625c0.435-1.074,1.251-2.615,2.45-4.621c1.199-2.006,2.016-3.548,2.451-4.623
			c0.138-0.34,0.183-0.55,0.136-0.629c-0.017-0.304-0.179-0.519-0.486-0.643c-0.24-0.098-0.661-0.188-1.263-0.272
			c-0.603-0.084-1.049-0.186-1.339-0.303c-0.41-0.166-0.744-0.399-1-0.7c-0.447-0.518-0.382-1.492,0.196-2.921
			C27.597,89.331,28.233,88.568,28.935,88.455z"/>
		<path fill="#FFFFFF" d="M50.693,100.697c0.979,1.632,1.312,3.943,0.998,6.93c-0.545,2.202-1.089,3.718-1.633,4.546
			c-0.64,0.975-1.704,1.752-3.192,2.331c-1.785,0.042-3.292-0.099-4.522-0.425c-1.336-0.354-2.498-0.938-3.484-1.751
			c-0.721-1.241-1.164-2.358-1.329-3.357c-0.166-0.998-0.068-2.173,0.291-3.528c0.179-0.677,0.438-1.438,0.776-2.283
			c1.09-1.887,1.929-3.181,2.517-3.884c1.168-1.388,2.429-2.151,3.782-2.289C47.711,97.733,49.644,98.971,50.693,100.697z
			 M44.159,107.979c1.444,0.383,2.399-0.308,2.867-2.073c0.16-0.606-0.042-1.174-0.607-1.705c-0.491-0.455-1.052-0.747-1.686-0.876
			c-0.326-0.066-0.757,0.268-1.295,1.002c-0.447,0.607-0.736,1.121-0.867,1.544C42.24,106.909,42.769,107.612,44.159,107.979z"/>
		<path fill="#FFFFFF" d="M59.001,97.208c1.467,0.15,2.257,0.575,2.372,1.271c0.027,0.097,0.033,0.227,0.016,0.392
			c-0.064,0.624-0.293,1.545-0.687,2.766c-0.394,1.221-0.624,2.15-0.689,2.793c-0.094,0.917-0.01,1.63,0.253,2.139
			c0.079,0.138,0.201,0.215,0.365,0.232c0.11,0.012,0.571-0.099,1.382-0.33c0.812-0.232,1.483-0.32,2.016-0.266
			c0.972,0.1,1.958,0.506,2.961,1.221c1.1,1.207,1.558,2.699,1.375,4.478c-0.182,1.78-0.922,3.298-2.219,4.555
			c-0.475,0.471-1.314,0.802-2.521,0.994c-1.112,0.181-2.284,0.209-3.512,0.084c-1.083-0.111-2.089-0.336-3.018-0.671
			c-1.324-0.47-2.105-1.068-2.346-1.798c-0.454-1.362-0.487-3.923-0.101-7.684c0.229-2.237,0.521-4.265,0.874-6.083
			c0.354-1.816,0.642-2.909,0.865-3.274C56.718,97.335,57.589,97.063,59.001,97.208z M60.139,112.673
			c0.377,0.298,0.771,0.431,1.183,0.398c1.251-0.093,1.913-0.489,1.985-1.186c0.015-0.146,0.006-0.333-0.027-0.559
			c-0.107-0.753-0.547-1.168-1.317-1.248c-0.22-0.022-0.573-0.021-1.058,0.003c-0.745,0.034-1.167,0.538-1.267,1.51
			C59.595,112.015,59.762,112.374,60.139,112.673z"/>
		<path fill="#FFFFFF" d="M72.748,98.721c0.828-0.286,1.685-0.462,2.567-0.53c2.353-0.179,4.383,0.248,6.09,1.282
			c0.698,0.429,1.427,1.5,2.187,3.217c0.849,1.914,1.35,3.874,1.503,5.877c0.206,2.684-0.295,4.969-1.501,6.855
			c-0.495,0.777-1.436,1.423-2.82,1.936c-1.098,0.398-2.236,0.642-3.412,0.732c-2.114,0.161-3.627-0.158-4.539-0.957
			c-0.733-0.888-1.355-4.668-1.865-11.342c-0.24-3.144-0.286-5.012-0.137-5.607C70.969,99.591,71.611,99.103,72.748,98.721z
			 M76.81,109.784c0.22,0.464,0.662,0.671,1.323,0.62c0.625-0.048,1.084-0.341,1.376-0.881c0.242-0.463,0.337-1.024,0.287-1.687
			c-0.14-1.838-1.084-2.69-2.83-2.557c-0.515,0.039-0.75,0.343-0.708,0.914c0.017,0.22,0.061,0.55,0.131,0.989
			c0.07,0.438,0.115,0.768,0.131,0.988C76.582,108.978,76.678,109.516,76.81,109.784z"/>
		<path fill="#FFFFFF" d="M97.079,99.182c1.668,0.917,3.12,2.745,4.354,5.484c0.639,2.176,0.932,3.76,0.88,4.749
			c-0.062,1.166-0.589,2.372-1.583,3.621c-1.521,0.937-2.894,1.574-4.12,1.912c-1.333,0.368-2.631,0.449-3.893,0.242
			c-1.248-0.708-2.194-1.451-2.838-2.229c-0.646-0.778-1.154-1.844-1.527-3.194c-0.186-0.675-0.346-1.462-0.479-2.363
			c-0.008-2.179,0.064-3.72,0.216-4.621c0.311-1.789,1.015-3.083,2.114-3.883C93.01,98.124,95.302,98.218,97.079,99.182z
			 M95.104,108.764c1.44-0.397,1.917-1.475,1.431-3.235c-0.167-0.604-0.628-0.993-1.383-1.168c-0.653-0.145-1.285-0.113-1.897,0.094
			c-0.315,0.105-0.52,0.612-0.614,1.518c-0.081,0.749-0.071,1.339,0.029,1.771C92.906,108.807,93.717,109.147,95.104,108.764z"/>
		<path fill="#FFFFFF" d="M112.528,108.103c0.333,0.636-0.236,1.316-1.708,2.042c-1.489,0.733-2.429,0.828-2.821,0.282
			c-1.421-1.967-2.876-4.463-4.365-7.485c-1.513-3.072-2.274-5.097-2.284-6.077c-0.119-0.824,0.293-1.469,1.236-1.933
			c0.414-0.205,0.826-0.304,1.238-0.302c0.511-0.005,0.874,0.167,1.086,0.513c0.106,0.215,0.188,0.339,0.245,0.372
			c0.099,0.075,0.251,0.072,0.458-0.008c0.364-0.139,0.616-0.397,0.759-0.776c0.159-0.469,0.385-0.868,0.675-1.195
			c0.498-0.575,1.07-1.02,1.715-1.339c1.207-0.594,2.45-0.709,3.729-0.348c1.278,0.363,2.2,1.141,2.768,2.333
			c0.7,1.088,1.419,2.38,2.157,3.878c1.451,2.946,2.307,5.184,2.566,6.712c-0.021,0.584-0.636,1.172-1.842,1.767
			c-1.092,0.538-1.838,0.569-2.237,0.092c-0.229-0.09-0.566-0.588-1.012-1.49c-0.186-0.377-0.454-0.954-0.806-1.729
			c-0.351-0.775-0.62-1.352-0.805-1.729c-1.286-2.612-2.302-3.65-3.047-3.119c-0.149,0.114-0.539,0.409-1.168,0.883
			c-0.373,0.286-0.45,0.754-0.232,1.405c0.048,0.182,0.263,0.661,0.645,1.436C109.34,102.007,110.357,103.946,112.528,108.103z"/>
		<path fill="#FFFFFF" d="M124.806,102.812c-0.212-0.074-0.686-0.414-1.42-1.022c-0.206-0.441-0.245-0.938-0.117-1.484
			c0.128-0.548,0.394-0.966,0.797-1.257c0.24-0.174,0.524-0.299,0.854-0.378c1.065,0.026,1.994-0.247,2.786-0.818
			c0.732-0.53,1.271-1.248,1.616-2.158c0.361-1.012,0.288-1.868-0.22-2.571c-0.205-0.283-0.47-0.478-0.797-0.584
			c-0.15-0.05-0.3-0.021-0.45,0.086c-0.104,0.076-0.42,0.503-0.949,1.283c-0.528,0.781-1.032,1.342-1.51,1.689
			c-0.822,0.592-1.845,0.957-3.068,1.089c-1.623-0.168-2.958-0.979-4.006-2.428c-1.025-1.42-1.483-3.046-1.374-4.878
			c0.101-1.527,1.139-3.006,3.111-4.432c0.897-0.647,1.844-1.161,2.844-1.541c1.236-0.462,2.283-0.604,3.139-0.426
			c0.856,0.178,1.876,0.851,3.062,2.019c0.892,0.857,1.705,1.793,2.439,2.81c1.771,2.452,2.8,4.836,3.086,7.154
			c0.34,2.802-0.573,4.985-2.74,6.551c-0.927,0.67-2.078,1.217-3.454,1.642C126.712,103.199,125.502,103.083,124.806,102.812z
			 M124.012,87.826c-0.479,0.029-0.862,0.192-1.148,0.49c-0.873,0.903-1.103,1.638-0.692,2.206c0.087,0.121,0.216,0.253,0.391,0.4
			c0.581,0.489,1.186,0.507,1.814,0.054c0.179-0.13,0.441-0.365,0.787-0.706c0.533-0.521,0.514-1.179-0.059-1.97
			C124.856,87.956,124.492,87.799,124.012,87.826z"/>
	</g>
	<g id="XMLID_2_">
		<g>
			<path fill="#BAE2F2" d="M39.549,29.586c-19.252-5.885-31.366,8.809-23.206,25.063c0.445,4.465-5.765,2.283-6.498,5.569
				c0.696,4.4,7.556,4.976,11.139,3.713c-1.169,19.772,21.192,33.176,37.13,21.35c4.186,19.057,41.725,19.985,43.628-1.856
				c27.689,2.766,31.653-40.324,7.426-44.556c3.564-22.938-21.266-31.979-37.13-21.35C59.256,10.103,40.515,14.577,39.549,29.586z"
				/>
		</g>
		<g>
		</g>
	</g>
	<g>
		<polygon fill="#FCBF26" points="84.268,51.066 75.083,50.99 82.754,46.279 		"/>
		<path fill="#2DA2DC" d="M93.501,34.594c11.569-6.881,11.577-25.363,15.209-25.832c3.634-0.467,2.19,9.702,2.19,9.702
			s3.481-8.82,6.465-7.62c2.985,1.2-1.517,10.987-1.517,10.987s5.565-6.256,7.45-4.212c1.883,2.043-5.27,10.39-5.27,10.39
			s5.874-3.27,7.429-1.011c1.556,2.257-9.138,13.713-25.445,16.964L93.501,34.594z"/>
		<path fill="none" stroke="#1A1C38" stroke-width="5.7433" stroke-linecap="round" stroke-linejoin="round" d="M94.186,58.399
			l5.728,2.366c-8.012,0.401-11.292,2.471-10.851,6.933"/>
		<polygon fill="#FCBF26" points="81.66,37.243 71.917,39.896 82.831,46.011 		"/>
		<path fill="none" stroke="#1A1C38" stroke-width="5.7433" stroke-linecap="round" stroke-linejoin="round" d="M91.897,62.372
			c-2.354,2.594-0.051,5.209-0.051,5.209"/>
		<g>
			<defs>
				<path id="SVGID_1_" d="M85.826,23.705c20.971-5.18,31.945,16.615,36.802,38.021c-6.641,1.924-12.698,2.483-18.002,1.932
					c-15.101-1.569-24.068-12.19-22.835-26.316C82.165,33.068,83.469,28.47,85.826,23.705z"/>
			</defs>
			<use xlink:href="#SVGID_1_"  overflow="visible" fill="#4EC2EC"/>
			<clipPath id="SVGID_2_">
				<use xlink:href="#SVGID_1_"  overflow="visible"/>
			</clipPath>
			
				<radialGradient id="SVGID_3_" cx="591.9395" cy="125.7402" r="19.0352" gradientTransform="matrix(-0.9243 -0.3816 -0.3816 0.9243 718.4704 146.75)" gradientUnits="userSpaceOnUse">
				<stop  offset="0.3483" style="stop-color:#2DA2DC"/>
				<stop  offset="0.5215" style="stop-color:#31A6DE"/>
				<stop  offset="0.7515" style="stop-color:#3CB1E4"/>
				<stop  offset="1" style="stop-color:#4EC2EC"/>
			</radialGradient>
			<circle clip-path="url(#SVGID_2_)" fill="url(#SVGID_3_)" cx="123.358" cy="37.088" r="19.035"/>
		</g>
		<path fill="#FFFFFF" d="M93.583,37.412c4.363-4.1,5.207-9.84,1.884-12.819c-3.32-2.975-9.552-2.064-13.914,2.039
			c-4.365,4.102-5.208,9.842-1.886,12.819C82.986,42.426,89.219,41.514,93.583,37.412z"/>
		<path fill="none" d="M85.826,23.705c20.971-5.18,31.945,16.615,36.802,38.021C91.353,70.783,72.95,49.732,85.826,23.705z"/>
		<path fill="none" stroke="#1A1C38" stroke-width="5.7433" stroke-linecap="round" stroke-linejoin="round" d="M102.101,59.956
			l5.729,2.365c-8.011,0.401-11.291,2.472-10.85,6.934"/>
		<path fill="none" stroke="#1A1C38" stroke-width="5.7433" stroke-linecap="round" stroke-linejoin="round" d="M99.814,63.929
			c-2.354,2.594-0.049,5.208-0.049,5.208"/>
		<path fill="#4EC2EC" d="M103.352,36.268c13.374-1.527,20.969-18.375,24.474-17.311c3.506,1.067-1.986,9.745-1.986,9.745
			s6.795-6.613,9.024-4.292c2.228,2.321-5.896,9.395-5.896,9.395s7.645-3.418,8.522-0.782c0.879,2.638-9.071,7.311-9.071,7.311
			s6.698-0.571,7.19,2.128c0.492,2.699-13.964,8.752-30.166,5.02L103.352,36.268z"/>
		<path fill="#4EC2EC" d="M120.416,58.946c0,0,17.666-1.234,17.6,3.104c-0.066,4.337-15.241-1.244-15.241-1.244
			s15.836,7.039,13.305,10.255c-2.531,3.218-14.46-8.562-14.46-8.562s10.945,11.043,6.451,12.838
			c-4.496,1.793-9.466-14.167-9.466-14.167L120.416,58.946z"/>
		
			<ellipse transform="matrix(0.9243 0.3817 -0.3817 0.9243 24.4822 -32.6211)" fill="#4EC2EC" cx="94.469" cy="45.402" rx="5.464" ry="3.558"/>
		<path fill="none" stroke="#2DA2DC" stroke-width="5.7433" stroke-linecap="round" d="M100.903,35.292
			c-7.06,1.039-11.938,6.764-4.902,8.036"/>
		<circle fill="#010202" cx="80.796" cy="36.933" r="1.522"/>
	</g>
	<g>
		<path fill="#2DA2DC" d="M61.787,69.513c0.199-1.056-1.245-1.217-3.316-0.722c1.118-1.284,1.698-2.427,1.376-3.113
			c-0.373-0.798-1.903-0.843-3.926-0.443c1.108-1.085,1.638-2.181,1.356-3.112c-0.261-0.858-1.171-1.451-2.504-1.762
			c3.873-2.06-3.399-3.435-3.947-3.324c-0.002,0-0.003,0-0.004,0c3.013-0.571,5.477-1.461,5.477-1.461
			c2.84-1.507-7.026-0.671-8.746-1.199c-1.72-0.527-9.953-4.044-6.899,0.855c0.479,0.767,1.192,1.302,2.055,1.66
			c-3.117,0.365-5.972,1.494-6.114,4.465c-0.081,1.713,1.433,2.345,3.535,2.408c-2.264,1.496-3.526,3.17-3.12,4.509
			c0.485,1.597,3.206,2.274,6.748,1.925c-3.03,2.026-4.776,4.263-4.141,5.618c0.693,1.479,4.002,1.453,7.932,0.108
			c-0.21,0.381-0.384,0.769-0.503,1.164c-2.231,7.354,2.576,5.745,6.172,3.197c-0.363,0.812-0.615,1.554-0.706,2.161
			c-0.672,4.449,3.386,2.524,3.746,0.059c0.36-2.465,6.917-12.537,6.917-12.537C62.991,69.282,62.484,69.191,61.787,69.513z"/>
		<path fill="#4EC2EC" d="M68.491,64.415c0,0,7.777-4.721,2.964-10.246c-4.223-4.849-11.526-0.025-11.526-0.025
			s-1.974,1.71,3.095,2.022C68.093,56.477,64.375,64.374,68.491,64.415z"/>
	</g>
</g>
<g>
</g>
<g>
</g>
<g>
</g>
<g>
</g>
<g>
</g>
<g>
</g>
</svg>
