<?xml version="1.0" encoding="utf-8"?>
<!-- Generator: Adobe Illustrator 16.0.0, SVG Export Plug-In . SVG Version: 6.00 Build 0)  -->
<!DOCTYPE svg PUBLIC "-//W3C//DTD SVG 1.1//EN" "http://www.w3.org/Graphics/SVG/1.1/DTD/svg11.dtd">
<svg version="1.1" id="Layer_1" xmlns="http://www.w3.org/2000/svg" xmlns:xlink="http://www.w3.org/1999/xlink" x="0px" y="0px"
	 width="150px" height="150px" viewBox="0 0 150 150" enable-background="new 0 0 150 150" xml:space="preserve">
<g id="XMLID_107_">
	<g id="XMLID_108_">
		<ellipse id="XMLID_109_" fill="#D8D8B6" cx="77.169" cy="141.142" rx="43.481" ry="3.525"/>
	</g>
</g>
<g>
	<path fill="#96D0E0" d="M142.514,83.233c0-8.102-6.566-14.669-14.669-14.669c-0.022,0-0.047,0.001-0.069,0.002
		c-0.853-11.19-10.193-20.006-21.601-20.006c-5.473,0-10.469,2.034-14.283,5.38c-4.458-12.091-16.083-20.716-29.724-20.716
		c-17.491,0-31.671,14.18-31.671,31.672c0,0.378,0.016,0.753,0.028,1.129C20.01,67.173,11.826,76.08,11.826,86.9
		c0,11.6,9.404,21.004,21.003,21.004c4.017,0,7.769-1.129,10.958-3.084c2.722,12.809,14.095,22.42,27.715,22.42
		c9.652,0,18.173-4.831,23.29-12.201c3.476,2.233,7.61,3.533,12.048,3.533c11.797,0,21.449-9.144,22.273-20.728
		C136.622,97.199,142.514,90.907,142.514,83.233z"/>
</g>
<g>
</g>
<g>
	<path fill="#96D0E0" d="M103.885,16.099c0.145,0.464,0.9,7.956,1.161,11.586c0.232,2.875,0.232,5.953,0.232,8.769v0.813
		c0,3.542-0.465,7.608-3.979,7.608c-1.858,0-2.933-0.784-3.774-1.8c-0.668,0.842-1.336,1.597-2.759,1.597
		c-1.539,0-3.078-1.249-3.601-1.888c-0.668-0.987-0.987-2.671-0.987-4.355c0-2.497,0.262-4.937,0.522-7.317v0.029
		c0.262-2.236,0.494-4.442,0.494-6.388c0-1.016-0.146-2.003-0.93-2.003c-0.812,0-1.074,0.697-1.248,1.249
		c-0.175,0.697-0.465,1.336-1.162,1.336c-0.812,0-1.104-0.61-1.104-1.365c0-1.626,1.539-3.659,3.775-3.659
		c2.352,0,3.107,2.614,3.107,4.065c0,1.045-0.116,2.207-0.262,3.311c-0.087,0.581-0.116,1.161-0.174,1.771
		c-0.088,0.871-0.116,1.713-0.175,2.584c-0.058,1.016-0.116,2.149-0.232,3.136c-0.087,1.017-0.174,2.091-0.174,3.136
		c0,2.294,0.639,4.036,2.119,4.036c1.278,0,1.539-1.8,1.771-3.629v0.029c0.029-0.261,0.029-0.552,0.059-0.842
		c0.058-1.162,0.203-2.41,1.394-2.41c0.9,0,1.104,0.726,1.104,1.597c0,0.784-0.116,1.394-0.203,1.975
		c-0.087,0.494-0.175,0.958-0.175,1.278c0,1.423,1.685,2.294,2.729,2.294c1.423,0,1.452-4.297,1.452-5.866
		c0-4.384-0.29-11.063-0.784-15.622c-0.058-0.552-0.145-1.016-0.232-1.539c-0.116-0.929-0.261-1.829-0.261-2.846
		c0-0.958,0.174-1.771,1.045-1.771c0.522,0,0.843,0.436,1.074,0.784h-0.028l0.087,0.087L103.885,16.099z"/>
	<path fill="#96D0E0" d="M97.377,13.079c1.684-0.319,3.106-1.075,3.978-2.207c0.639-0.726,2.178-0.203,2.178,0.755
		c-0.116,0.813-0.755,1.336-1.364,1.858c0,0-0.116,0.058-0.146,0.087c-0.493,0.377-1.133,0.726-1.742,0.987h0.029
		c-1.104,0.522-2.613,1.045-4.065,1.045c-0.609,0-1.133-0.058-1.568-0.232c-1.104-0.581-0.609-1.132-0.145-1.742
		c0.028-0.087,0.087-0.146,0.145-0.262c0.203-0.377,0.436-0.929,0.436-1.335c0-0.087-0.058-0.116-0.203-0.116
		c-0.087,0-0.203,0.087-0.319,0.174l0.059-0.029c-0.232,0.204-0.465,0.377-1.046,0.436c-0.436,0-0.987-0.203-1.017-0.929
		c-0.058-1.277,1.568-2.236,2.991-2.032c1.074,0.174,2.236,1.365,2.004,2.933C97.521,12.76,97.464,12.934,97.377,13.079z"/>
	<path fill="#96D0E0" d="M118.545,44.381c-0.29,0.145-0.465,0.232-1.133,0.058c-0.552-0.203-0.696-0.842-0.755-1.481
		c-0.029-0.522,0-1.104,0.059-1.626c0.028-0.232,0.058-0.494,0.058-0.668c0.029-0.291,0.029-0.552,0.029-0.813
		c0-0.581-0.029-1.132-0.059-1.742c-0.028-0.697-0.028-1.481-0.028-2.323c0-0.494,0.028-0.987,0.058-1.481
		c0.029-0.29,0.059-0.581,0.059-0.871c0-0.377-0.029-0.726-0.029-1.132c-0.029-0.349-0.029-0.871-0.029-1.22
		c0-0.784,0.029-1.597,0.059-2.352c0.028-0.871,0.058-1.916,0.028-2.729c0-0.813-0.087-1.887-0.377-2.381h0.029
		c-0.784-1.19-2.643-1.858-4.414-1.858c-0.9,0-1.771,0.174-2.469,0.581c-0.174,0.087-0.348,0.262-0.522,0.377h0.059
		c-0.436,0.436-0.843,0.929-1.626,0.436c-1.511-1.277,0.087-2.439,1.335-3.078c1.046-0.494,1.917-0.755,2.846-0.784
		c2.294-0.058,4.211,0.61,5.663,1.655c0.145,0.116,0.319,0.261,0.522,0.436c0.232,0.203,0.377,0.319,0.58,0.581l-0.028-0.058
		c0.639,0.813,0.812,2.352,0.871,3.514c0.028,0.377,0.028,0.958,0.028,1.336c0,0.639,0,1.277-0.028,1.917
		c-0.029,0.667-0.029,1.307-0.029,1.945c-0.029,0.552,0,1.074,0,1.626v0.871c-0.029,1.742-0.058,3.049-0.116,4.85
		c-0.029,0.436,0,0.871,0.029,1.307c0.029,0.464,0.029,0.9,0.029,1.335c0,0.232-0.029,0.494-0.059,0.697
		c-0.029,0.291-0.087,0.755-0.087,0.755c0,0.174,0.029,0.319,0.029,0.464c0.028,0.465,0,1.074-0.349,1.626L118.545,44.381z"/>
</g>
<g id="XMLID_967_">
	<g id="XMLID_974_">
		<circle id="XMLID_975_" fill="#B27A23" cx="59.478" cy="74.676" r="2.902"/>
	</g>
	<g id="XMLID_972_">
		<circle id="XMLID_973_" fill="#B27A23" cx="94.862" cy="74.676" r="2.903"/>
	</g>
	<g id="XMLID_970_">
		<path id="XMLID_971_" fill="#B27A23" d="M77.17,103.974c9.707,0,17.575-7.868,17.575-17.576H59.594
			C59.594,96.105,67.463,103.974,77.17,103.974z"/>
	</g>
	<g id="XMLID_968_">
		<path id="XMLID_969_" fill="#CA8928" d="M77.17,95.75c-3.878,0-7.128,2.686-7.995,6.299c2.399,1.228,5.115,1.925,7.995,1.925
			s5.595-0.697,7.994-1.925C84.298,98.436,81.048,95.75,77.17,95.75z"/>
	</g>
</g>
<g>
</g>
<g>
</g>
<g>
</g>
<g>
</g>
<g>
</g>
<g>
</g>
</svg>
