<?xml version="1.0" encoding="utf-8"?>
<!-- Generator: Adobe Illustrator 16.0.0, SVG Export Plug-In . SVG Version: 6.00 Build 0)  -->
<!DOCTYPE svg PUBLIC "-//W3C//DTD SVG 1.1//EN" "http://www.w3.org/Graphics/SVG/1.1/DTD/svg11.dtd">
<svg version="1.1" id="Layer_1" xmlns="http://www.w3.org/2000/svg" xmlns:xlink="http://www.w3.org/1999/xlink" x="0px" y="0px"
	 width="150px" height="150px" viewBox="0 0 150 150" enable-background="new 0 0 150 150" xml:space="preserve">
<g id="XMLID_107_">
	<g id="XMLID_110_">
		<g id="XMLID_119_">
			<path id="XMLID_120_" fill="#93C01F" d="M84.072,45.047c-3.304-7.583-8.24-16.011-19.646-16.011l0,0
				c-0.481,0-0.954,0.022-1.429,0.056c-0.471-0.034-0.946-0.056-1.427-0.056l0,0c-11.407,0-16.342,8.428-19.646,16.011
				c-1.424,3.268-16.99,35.085-16.99,49.546c0,20.707,17.18,37.402,38.062,36.605c20.885,0.797,38.065-15.898,38.065-36.605
				C101.063,80.133,85.498,48.315,84.072,45.047z"/>
		</g>
		<g id="XMLID_117_">
			<path id="XMLID_118_" fill="#93C01F" d="M76.863,15.932c-4.731,6.017-13.701,6.858-13.701,6.858s-1.298-8.914,3.434-14.932
				C71.327,1.84,80.296,1,80.296,1S81.595,9.915,76.863,15.932z"/>
		</g>
		<g id="XMLID_115_">
			<circle id="XMLID_116_" fill="#4F7B2E" cx="47.625" cy="91.91" r="3.171"/>
		</g>
		<g id="XMLID_113_">
			<circle id="XMLID_114_" fill="#4F7B2E" cx="79.242" cy="91.91" r="3.172"/>
		</g>
	</g>
	<g id="XMLID_108_">
		<ellipse id="XMLID_109_" fill="#D8D8B6" cx="62.999" cy="142.729" rx="26.201" ry="3.525"/>
	</g>
</g>
<path id="XMLID_71_" fill="#4F7B2E" d="M70.53,97.914c-0.788,0-1.431,0.643-1.431,1.434c0,2.902-2.363,5.266-5.268,5.266
	c-2.903,0-5.265-2.363-5.265-5.266c0-0.791-0.643-1.434-1.433-1.434s-1.432,0.643-1.432,1.434c0,4.482,3.647,8.129,8.13,8.129
	c4.484,0,8.131-3.646,8.131-8.129C71.963,98.557,71.321,97.914,70.53,97.914z"/>
<g>
	<path fill="none" d="M91.142,30.382c0,0,31.383,59.584,35.753,67.531"/>
	<path fill="#93C01F" d="M96.31,35.822c0.038-0.02,0.184,0.073,0.379,0.212c0.535,0.373,1.071,0.792,0.875,1.478
		c-0.289,0.831-1.526,0.368-2.122-0.118c-0.254-0.206-0.538-0.516-0.698-0.819c-0.26-0.493-0.368-1.066-0.119-1.561
		c0.219-0.503,0.831-1.044,1.349-1.487l-0.009,0.029c1.036-0.885,1.89-1.335,3.027-1.935l0.398-0.21
		c0.607-0.32,1.185-0.649,1.754-0.949c1.157-0.609,2.305-1.19,3.605-1.803c0.446-0.21,0.997-0.453,1.435-0.635
		c0.675-0.283,1.34-0.584,1.89-0.875c0.095-0.05,0.18-0.119,0.312-0.189c0.646-0.34,1.317-0.766,1.802-0.077
		c0.427,0.672-0.26,1.3-1.019,1.7c-0.209,0.11-0.493,0.26-0.674,0.331c-0.076,0.04-0.143,0.051-0.181,0.071
		c-0.693,0.341-1.443,0.664-2.223,1.025c-1.376,0.653-2.811,1.288-3.863,1.866c-0.437,0.23-0.768,0.429-1.08,0.618
		c-0.351,0.208-0.663,0.397-1.042,0.598C98.438,33.974,96.807,34.833,96.31,35.822z"/>
	<path fill="#93C01F" d="M116.812,39.84c0.07,0.593-0.667,1.079-1.387,1.458c-0.664,0.35-1.176,0.62-1.659,0.851
		c-0.266,0.14-0.787,0.391-1.033,0.521l-0.474,0.25c-0.171,0.09-0.437,0.229-0.636,0.311s-0.475,0.202-0.664,0.302l-1.005,0.529
		c-0.36,0.19-0.729,0.409-1.089,0.599c-0.683,0.36-1.365,0.672-2.002,0.935c-3.136,1.266-6.489,2.623-8.168-0.561
		c-1.319-2.502,0.67-4.471,3.19-5.8c1.25-0.66,2.61-1.159,4.018-1.659c1.483-0.54,3.005-1.1,4.351-1.81
		c0.36-0.19,1.711-1.072,1.252-1.944c-0.17-0.322-0.712-0.109-1.159,0.054c-0.589,0.214-1.054,0.435-1.354-0.133
		c-0.41-0.777,0.145-1.288,0.599-1.527c1.213-0.64,2.886-0.408,3.546,0.843c0.749,1.421-0.217,3.263-1.788,4.188
		c-1.062,0.56-2.146,0.938-3.258,1.355c-0.762,0.256-1.522,0.512-2.272,0.835l-0.627,0.282c-0.854,0.354-1.795,0.729-2.554,1.129
		c-1.554,0.819-3.07,2.031-2.291,3.509c0.63,1.194,2.031,0.867,3.507,0.403c1.199-0.39,2.588-0.88,3.763-1.5
		c0.398-0.21,0.759-0.4,1.128-0.619c0.359-0.19,0.69-0.389,1.032-0.568c0.625-0.33,1.166-0.591,1.744-0.872
		c0.598-0.291,1.376-0.653,2.247-1.113c0.133-0.07,0.304-0.16,0.464-0.269c0.198-0.129,0.454-0.288,0.72-0.428
		c0.72-0.38,1.396-0.567,1.736,0.077c0.04,0.076,0.09,0.171,0.111,0.304l-0.051-0.143c0.01,0.019-0.009,0.029,0.001,0.048
		L116.812,39.84z"/>
	<path fill="#93C01F" d="M114.407,31.007c-0.298-0.473-0.033-1.073,0.568-1.172c0.497-0.068,1.77,0.69,2.073,0.99
		c0.479,0.45,0.896,1.102,1.245,1.765c0.58,1.099,0.972,2.394,1.167,3.406c0.547-0.386,1.095-0.771,1.436-0.539
		c1.162,1.01,0.367,1.478-0.569,2.044c-0.076,0.04-0.198,0.129-0.321,0.218c-0.18,0.119-0.378,0.248-0.605,0.368
		c-0.53,0.28-1.084,0.378-1.508-0.149c-0.158-0.208-0.225-0.609-0.242-1.011c-0.002-0.096-0.024-0.229-0.047-0.363
		c-0.108-1.033-0.384-2.244-1.109-3.436c-0.238-0.407-0.487-0.833-0.83-1.161l0.01,0.019c-0.126-0.103-0.32-0.194-0.466-0.287
		l0.029,0.009c-0.282-0.166-0.544-0.295-0.82-0.682L114.407,31.007z"/>
	<path fill="#93C01F" d="M123.353,51.617c0.2,0.379,0.188,0.725,0.014,1.035c-1.557,1.137-3.373,2.242-5.192,3.203
		c-0.341,0.18-0.702,0.322-1.054,0.483c-0.332,0.151-0.645,0.292-0.967,0.463c-0.512,0.27-1.023,0.541-1.544,0.84
		c-0.531,0.28-1.052,0.579-1.544,0.839c-1.213,0.641-2.653,1.401-3.623,1.356c-2.053-0.031-3.815-2.129-4.676-3.759
		c-1.592-3.013-0.952-5.703,2.44-7.494c1.554-0.821,3.487-1.382,4.969-1.194c0.291-1.099,0.935-2.36,2.28-3.071
		c1.175-0.621,4.224-1.456,5.396,0.762c0.561,1.062,0.424,2.272-0.921,2.983c-0.401,0.066-0.732-0.147-0.902-0.469
		c-0.23-0.436-0.026-0.737,0.225-1.088c0.158-0.205,0.345-0.449,0.235-0.657c-0.461-0.872-2.187-0.421-3.134,0.08
		c-1.08,0.571-1.492,1.443-1.479,2.89l0.004,0.144c-0.02,0.422-0.026,0.547,0.128,1.023c0.005,0.24,0.099,0.554,0.182,0.849
		l0.009-0.029c0.238,0.771,0.475,1.495-0.245,1.875c-0.493,0.26-0.937,0.155-1.217-0.375c-0.084-0.343-0.218-0.733-0.331-1.085
		c-0.226-0.657-0.439-1.246-0.396-1.899c-1.021-0.236-2.623,0.173-4.007,0.904c-0.947,0.5-1.7,1.141-2.04,1.829
		c-0.348,0.717-0.138,2.4,0.312,3.252c0.701,1.327,2.13,2.656,2.983,2.666c0.7-0.006,1.432-0.319,2.133-0.69
		c0.644-0.34,1.316-0.72,2.008-1.109c0.69-0.389,1.382-0.779,2.045-1.129c0.284-0.15,0.627-0.283,0.921-0.414
		c0.295-0.131,0.569-0.252,0.854-0.403c0.909-0.48,1.789-1.018,2.649-1.545c0.852-0.499,1.788-1.066,2.622-1.506
		c0.371-0.123,0.528,0.036,0.695,0.215c-0.021-0.038,0.029,0.009,0.067,0.037L123.353,51.617z"/>
	<path fill="#93C01F" d="M120.297,67.774c-0.588,0.311-1.014,0.56-1.363,0.769l0.019-0.01c-0.198,0.129-0.406,0.239-0.577,0.329
		c-2.597,1.371-5.207,2.12-6.323,0.649c-0.068-0.084-0.128-0.15-0.196-0.235c-0.01-0.019-0.06-0.065-0.079-0.104
		c-0.148-0.188-0.365-0.461-0.525-0.765c-0.311-0.588-0.459-1.236,0.186-1.577c0.691-0.389,1.197,0.386,1.635,1.076
		c0.139,0.217,0.288,0.454,0.347,0.52c0.374,0.433,1.562-0.073,2.302-0.416c0.075-0.04,0.237-0.101,0.275-0.121
		c0.104-0.031,0.218-0.091,0.342-0.132l-0.019,0.01c0.323-0.122,0.617-0.253,1.016-0.463c0.474-0.25,1.013-0.56,1.458-0.819
		c0.331-0.199,0.615-0.349,0.805-0.449c0.417-0.22,0.768-0.381,1.101-0.533c0.332-0.151,0.674-0.284,1.129-0.524
		c1.25-0.708,2.726-1.585,3.56-2.438c0.421-0.489,0.485-1.056,0.402-1.764c-0.012-0.067-0.033-0.201-0.034-0.249
		c-0.113-0.764-0.156-0.984-0.355-1.315c-0.53-1.004-1.5-1.462-2.721-1.205l0.019-0.01c-0.229,0.072-0.551,0.242-0.835,0.393
		c-0.701,0.37-1.27,0.67-1.65-0.05c-0.39-0.739,0.517-1.363,1.085-1.664c1.156-0.61,2.223-0.519,3.157-0.31
		c0.973,0.189,1.878,0.802,2.588,2.147c0.301,0.568,0.938,2.462,0.686,3.638c-0.371,1.868-3.136,3.425-5.447,4.646
		c-0.304,0.16-0.569,0.3-0.825,0.412c-0.275,0.121-0.551,0.242-0.892,0.422L120.297,67.774z"/>
</g>
<g>
</g>
<g>
</g>
<g>
</g>
<g>
</g>
<g>
</g>
<g>
</g>
</svg>
