<?xml version="1.0" encoding="utf-8"?>
<!-- Generator: Adobe Illustrator 16.0.0, SVG Export Plug-In . SVG Version: 6.00 Build 0)  -->
<!DOCTYPE svg PUBLIC "-//W3C//DTD SVG 1.1//EN" "http://www.w3.org/Graphics/SVG/1.1/DTD/svg11.dtd">
<svg version="1.1" id="Layer_1" xmlns="http://www.w3.org/2000/svg" xmlns:xlink="http://www.w3.org/1999/xlink" x="0px" y="0px"
	 width="150px" height="150px" viewBox="0 0 150 150" enable-background="new 0 0 150 150" xml:space="preserve">
<g id="XMLID_997_">
	<g id="XMLID_1000_">
		<g id="XMLID_1009_">
			<path id="XMLID_1010_" fill="#93C01F" d="M95.892,5.872c0,0-9.813,0.925-16.213,7.11c-2.066-5.863-6.503-9.997-6.503-9.997
				s-4.145,4.022-6.155,9.703c-6.4-5.922-15.904-6.816-15.904-6.816s-1.694,11.638,4.484,19.494
				c6.176,7.857,8.709,2.164,17.894,2.164c9.188,0,11.736,5.693,17.915-2.164C97.587,17.51,95.892,5.872,95.892,5.872z"/>
		</g>
		<g id="XMLID_1007_">
			<path id="XMLID_1008_" fill="#E84350" d="M108.583,65.588c0,19.373-13.771,59.308-35.077,59.308
				c-21.309,0-35.079-39.935-35.079-59.308s15.705-31.285,35.079-31.285C92.878,34.303,108.583,46.215,108.583,65.588z"/>
		</g>
		<g id="XMLID_1005_">
			<circle id="XMLID_1006_" fill="#B62832" cx="55.942" cy="68.27" r="3.662"/>
		</g>
		<g id="XMLID_1003_">
			<circle id="XMLID_1004_" fill="#B62832" cx="92.445" cy="68.27" r="3.662"/>
		</g>
	</g>
	<g id="XMLID_998_">
		<ellipse id="XMLID_999_" fill="#D8D8B6" cx="73.505" cy="142.328" rx="30.248" ry="4.068"/>
	</g>
</g>
<path id="XMLID_68_" fill="#B62832" d="M84.588,71.007c-0.766,0-1.386,0.622-1.386,1.385c0,2.81-2.285,5.094-5.095,5.094
	c-2.809,0-5.094-2.285-5.094-5.094c0-0.763-0.622-1.385-1.386-1.385s-1.385,0.622-1.385,1.385c0,4.338,3.527,7.866,7.864,7.866
	s7.865-3.527,7.865-7.866C85.973,71.629,85.353,71.007,84.588,71.007z"/>
<g>
</g>
<g>
	<path fill="none" d="M101.388,31.679c0,0,16.522,14.003,14.16,30.539"/>
	<path fill="#E84350" d="M113.052,38.076l-1.005,0.783c-0.269,0.209-0.512,0.38-0.729,0.515c-0.076,0.041-0.141,0.073-0.186,0.108
		c-0.35,0.219-0.66,0.442-1.222,0.413c-0.632-0.028-1.482-0.406-1.961-1.021l-0.052-0.067c-0.018-0.022-0.041-0.076-0.05-0.087
		c-1.489-2.303,0.036-3.455,2.036-5.012c0.438-0.359,0.953-0.688,1.457-1.009c0.441-0.308,0.903-0.614,1.271-0.901
		c0.201-0.157,0.447-0.348,0.701-0.528c0.255-0.18,0.565-0.404,0.811-0.595c0.48-0.374,0.864-0.78,0.595-1.126
		c-0.271-0.346-0.723-0.19-1.052-0.06c-0.284,0.096-0.529,0.196-0.785-0.017c-0.247-0.363-0.1-0.658,0.18-0.875
		c0.815-0.635,1.946-0.565,2.607,0.284c0.766,0.983,0.18,1.959-0.792,2.716c-0.123,0.096-0.279,0.218-0.389,0.285
		c-0.131,0.084-0.273,0.178-0.374,0.256l-0.257,0.2c-0.101,0.078-0.192,0.168-0.293,0.246c-0.4,0.293-0.853,0.61-1.317,0.936
		c-0.641,0.445-1.292,0.898-1.872,1.351l-0.737,0.574c-0.503,0.391-0.924,0.773-1.075,1.178c-0.165,0.433,0.002,1.039,0.35,1.486
		c0.253,0.324,0.607,0.55,0.966,0.594c0.444-0.005,0.978-0.403,1.548-0.847c0.212-0.165,0.444-0.328,0.667-0.502l0.637-0.496
		c1.53-1.191,2.841-2.481,2.065-3.869c-0.026-0.034-0.041-0.076-0.067-0.109c-0.221-0.33-0.296-0.38,0.116-0.772
		c0.335-0.261,0.64-0.192,1.069,0.083c0.157,0.11,0.318,0.201,0.44,0.267l-0.02-0.002c0.46,0.198,0.917,0.255,1.472,0.092
		c0.244-0.101,0.22-0.063,0.44-0.218c0.221-0.154,0.441-0.308,0.549-0.355c0.317-0.122,0.384-0.083,0.569,0.041l-0.028-0.014
		c0,0,0.112,0.074,0.178,0.113c0.339,0.597-0.264,0.905-0.543,1.123c-0.972,0.757-1.718,0.674-2.691,0.392
		c0.146,1.017-0.267,1.894-1.247,2.8C114.45,36.969,113.722,37.554,113.052,38.076z"/>
	<path fill="#E84350" d="M117.212,47.021c-1.903,0.975-3.683,1.042-4.683-0.911c-0.549-1.071-0.64-1.963-0.547-2.806
		c0.023-0.203,0.084-0.489,0.139-0.724c0-0.063,0.019-0.121,0.037-0.178c-0.562,0.177-1.2,0.329-1.491-0.239
		c-0.161-0.315-0.006-0.665,0.259-0.8c0.126-0.064,0.271-0.091,0.398-0.061l-0.045,0.007c0.412,0.059,1.358-0.361,2.014-0.697
		c0.403-0.207,0.801-0.425,1.203-0.664c0.397-0.219,0.8-0.458,1.19-0.658c1.865-0.955,3.756-1.923,5.491-2.637
		c0.271-0.091,0.507,0.09,0.617,0.305c0.238,0.466-0.062,0.748-0.491,0.967c-0.491,0.251-1.059,0.51-1.651,0.782
		c-0.605,0.278-1.306,0.589-1.91,0.898c-0.139,0.071-0.284,0.161-0.423,0.232l-0.92,0.471c-0.365,0.188-0.769,0.426-1.203,0.664
		c-0.415,0.245-0.926,0.522-1.278,0.703l-0.315,0.161c-0.036,0.241-0.115,0.489-0.17,0.724c-0.208,0.838-0.438,1.815,0.071,2.812
		c0.8,1.562,2.131,1.024,3.593,0.275c0.202-0.103,0.366-0.187,0.693-0.387c0.101-0.051,0.208-0.09,0.296-0.136
		c0.209-0.091,0.417-0.181,0.631-0.291l0.945-0.484c0.151-0.078,0.334-0.155,0.498-0.239c0.617-0.316,1.223-0.658,1.814-0.993
		c0.535-0.29,1.115-0.619,1.568-0.851c0.429-0.22,0.802-0.331,1.047,0.148c0.116,0.227,0.125,0.524-0.107,0.691
		c-1.593,0.991-3.483,1.959-5.349,2.914l-0.365,0.188c-0.127,0.064-0.246,0.11-0.385,0.181c-0.189,0.097-0.233,0.135-0.296,0.167
		l-0.518,0.265C117.444,46.885,117.312,46.969,117.212,47.021z"/>
	<path fill="#E84350" d="M120.926,56.682c-0.371,0.09-0.784,0.189-1.187,0.272c-1.692,0.346-3.719,0.544-4.07-1.176
		c-0.17-0.832,0.088-1.478,0.46-1.987c-0.45-0.226-0.862-0.474-1.002-1.153c-0.15-0.735,0.271-1.573,0.553-1.89
		c0.403-0.43,1.166-0.73,1.984-0.897c0.957-0.196,2.089-0.312,3.05-0.422c0.055-0.011,0.142-0.014,0.211-0.029
		c0.086-0.003,0.169-0.02,0.241-0.021c0.269-0.026,0.511-0.046,0.766-0.07c0.821-0.082,1.644-0.163,2.351-0.308
		c0.472-0.096,0.926-0.276,0.855-0.623c-0.077-0.375-0.436-0.431-0.702-0.463c-0.366-0.026-0.703-0.116-0.773-0.463
		c-0.08-0.388,0.169-0.584,0.558-0.663c0.735-0.15,1.915,0.388,2.128,1.429c0.229,1.124-0.759,1.73-1.66,1.915
		c-0.417,0.085-0.838,0.143-1.291,0.191c-0.1,0.006-0.199,0.012-0.313,0.021c-0.283,0.029-0.566,0.058-0.835,0.084
		c-0.283,0.029-0.577,0.075-0.857,0.118c-0.125,0.026-0.277,0.057-0.405,0.069l-0.097,0.02c-0.464,0.066-0.969,0.141-1.424,0.176
		l0.014-0.003c-0.497,0.044-1.063,0.102-1.549,0.201c-1.04,0.213-1.81,0.688-1.665,1.396c0.119,0.583,0.979,0.551,1.818,0.48
		c0.116,0.005,0.172-0.006,0.228-0.018s0.142-0.015,0.197-0.026c0.591-0.078,1.215-0.133,1.329,0.421
		c0.096,0.472-0.236,0.612-0.666,0.7c-0.319,0.065-0.678,0.081-0.964,0.096c-0.202-0.002-0.488,0.013-0.613,0.039
		c-0.68,0.139-0.911,1.053-0.817,1.511c0.145,0.708,2.472,0.217,2.943,0.12c0.056-0.011,0.122-0.04,0.205-0.057l0.86-0.176
		c0.61-0.125,1.212-0.292,1.83-0.447l-0.014,0.003c0.136-0.042,0.288-0.074,0.424-0.116c0.164-0.048,0.313-0.093,0.464-0.138
		c0.873-0.251,1.747-0.502,2.643-0.787l0.107-0.037c0.122-0.039,0.327-0.096,0.48-0.127c0.485-0.099,0.88-0.079,0.968,0.351
		c0.06,0.292-0.281,0.607-0.485,0.735C126.75,55.129,123.465,56.163,120.926,56.682z"/>
	<path fill="#E84350" d="M111.09,54.037c0.406-0.193,0.901-0.218,1.453-0.244c0.113-0.002,0.283-0.006,0.383,0.006
		c0.171,0.011,0.369,0.021,0.385,0.091c-0.002-0.085-0.117-0.167-0.203-0.236c-0.216-0.151-0.402-0.26-0.381-0.559
		c0.077-0.384,0.342-0.56,0.64-0.566c0.227-0.005,0.455,0.075,0.642,0.213c0.347,0.275,0.489,0.967,0.496,1.307
		c0.01,0.439-0.32,0.899-1.015,0.914c-0.142,0.003-0.34-0.007-0.51-0.017c-0.171-0.01-0.397-0.02-0.567-0.016
		c-0.354,0.008-0.679,0.057-0.803,0.244c-0.055,0.072-0.067,0.157-0.065,0.228c0.003,0.156,0.077,0.296,0.106,0.352
		c0.116,0.125,0.401,0.204,0.686,0.226c0.269-0.006,0.552-0.026,0.834-0.046h-0.014c0.17-0.018,0.382-0.037,0.523-0.04
		c0.212-0.004,0.396,0.005,0.54,0.073l-0.015-0.014c0.3,0.107,0.553,0.654,0.29,0.971c-0.138,0.173-0.491,0.237-0.66,0.255
		c-0.127,0.017-0.34,0.036-0.595,0.042c-0.34,0.007-0.736-0.013-0.978-0.036c-0.781-0.083-1.7-0.629-1.846-1.462
		c-0.115-0.777,0.393-1.51,0.645-1.671L111.09,54.037z"/>
</g>
<g>
</g>
<g>
</g>
<g>
</g>
<g>
</g>
<g>
</g>
<g>
</g>
</svg>
