<?xml version="1.0" encoding="utf-8"?>
<!-- Generator: Adobe Illustrator 16.0.0, SVG Export Plug-In . SVG Version: 6.00 Build 0)  -->
<!DOCTYPE svg PUBLIC "-//W3C//DTD SVG 1.1//EN" "http://www.w3.org/Graphics/SVG/1.1/DTD/svg11.dtd">
<svg version="1.1" id="Layer_1" xmlns="http://www.w3.org/2000/svg" xmlns:xlink="http://www.w3.org/1999/xlink" x="0px" y="0px"
	 width="150px" height="150px" viewBox="0 0 150 150" enable-background="new 0 0 150 150" xml:space="preserve">
<g>
</g>
<g id="XMLID_139_">
	<g id="XMLID_142_">
		<g id="XMLID_148_">
			<g id="XMLID_149_">
				<path id="XMLID_150_" fill="#FFD400" d="M92.673,16.491L92.673,16.491c-1.777,1.678-2.069,4.396-0.694,6.415
					c12.017,17.618,14.942,40.852,5.705,61.802c-9.058,20.539-27.619,33.928-48.237,37.281c-2.5,0.408-4.365,2.523-4.438,5.057l0,0
					c-0.069,2.42,1.522,4.576,3.855,5.23c30.121,8.477,62.664-6.279,75.653-35.738c13.192-29.919,1.576-64.502-25.905-80.721
					C96.704,14.69,94.282,14.97,92.673,16.491z"/>
			</g>
		</g>
		<g id="XMLID_146_">
			
				<rect id="XMLID_147_" x="83.535" y="10.305" transform="matrix(0.7439 0.6683 -0.6683 0.7439 32.4729 -56.2558)" fill="#FFD400" width="12.213" height="7.878"/>
		</g>
		<g id="XMLID_144_">
			<circle id="XMLID_145_" fill="#C1A21C" cx="122.836" cy="63.084" r="2.8"/>
		</g>
		<g id="XMLID_73_">
			<circle id="XMLID_74_" fill="#C1A21C" cx="110.022" cy="63.084" r="2.798"/>
		</g>
	</g>
	<g id="XMLID_140_">
		<ellipse id="XMLID_141_" fill="#D8D8B6" cx="87.483" cy="145.607" rx="23.12" ry="3.111"/>
	</g>
</g>
<path id="XMLID_70_" fill="#C1A21C" d="M121.75,69.556c-0.696,0-1.264,0.568-1.264,1.263c0,2.564-2.084,4.649-4.646,4.649
	c-2.562,0-4.647-2.085-4.647-4.649c0-0.695-0.567-1.263-1.264-1.263c-0.697,0-1.265,0.568-1.265,1.263
	c0,3.957,3.22,7.175,7.176,7.175s7.173-3.218,7.173-7.175C123.013,70.124,122.447,69.556,121.75,69.556z"/>
<g>
	<path fill="none" d="M73.039,104.135c0.962-0.641,22.437-29.806,15.064-63.779"/>
	<path fill="#DBB30E" d="M76.219,96.5c-0.029-0.018-0.027-0.156-0.015-0.35c0.029-0.525,0.091-1.071,0.644-1.227
		c0.693-0.153,0.899,0.893,0.818,1.507c-0.034,0.261-0.127,0.588-0.268,0.826c-0.229,0.388-0.576,0.704-1.021,0.743
		c-0.438,0.062-1.068-0.129-1.592-0.297l0.024-0.006c-1.046-0.337-1.716-0.732-2.61-1.26l-0.313-0.185
		c-0.477-0.281-0.947-0.539-1.394-0.803c-0.908-0.536-1.793-1.078-2.765-1.712c-0.333-0.217-0.733-0.492-1.043-0.716
		c-0.48-0.344-0.969-0.672-1.4-0.927c-0.075-0.044-0.158-0.073-0.262-0.135c-0.506-0.299-1.083-0.579-0.815-1.204
		c0.281-0.577,1.002-0.372,1.598-0.021c0.164,0.097,0.388,0.229,0.513,0.322c0.06,0.035,0.096,0.076,0.125,0.094
		c0.527,0.332,1.067,0.711,1.646,1.092c1.031,0.669,2.074,1.385,2.917,1.862c0.342,0.202,0.619,0.345,0.881,0.479
		c0.292,0.152,0.554,0.287,0.852,0.463C74.049,95.822,75.33,96.578,76.219,96.5z"/>
	<path fill="#DBB30E" d="M71.408,87.494c1.008-2.73,0.338-5.064-1.413-6.729c-0.08-0.074-0.167-0.133-0.271-0.199
		c-0.436-0.254-0.755-0.512-0.463-1.158c0.157-0.346,0.497-0.553,0.906-0.367c1.348,0.838,2.032,1.925,2.547,3.05
		c1.378-0.95,2.911-0.94,5.163,0.079c0.44,0.199,0.906,0.429,1.34,0.645c0.418,0.207,0.82,0.408,1.229,0.594l0.268,0.121
		c0.269,0.121,0.585,0.303,0.861,0.446c0.292,0.151,0.553,0.288,0.836,0.416l0.236,0.107c0.078,0.035,0.164,0.056,0.243,0.091
		c0.473,0.214,0.413,0.681,0.264,1.011c-0.243,0.536-0.945,0.369-1.323,0.198c-0.677-0.307-1.45-0.694-2.208-1.074
		c-0.772-0.389-1.688-0.84-2.428-1.175c-1.338-0.605-2.11-0.746-3.122-0.521c-0.26,0.072-0.846,0.319-0.946,0.54
		c-0.015,0.031,0.021,0.161,0.064,0.275c0.027,0.107,0.062,0.199,0.058,0.292l-0.016-0.007c0.085,1.195,0.021,2.552-0.511,3.979
		c0.308,0.159,0.544,0.266,0.875,0.415l0.945,0.428c0.63,0.285,1.277,0.616,1.901,0.955c0.608,0.332,1.296,0.7,1.926,0.985
		c0.504,0.229,1.015,0.44,1.524,0.614c0.223,0.138,0.443,0.655,0.266,1.049c-0.264,0.583-0.814,0.372-1.255,0.173l-0.268-0.121
		c-0.236-0.107-0.448-0.184-0.685-0.291c-0.228-0.084-0.526-0.219-0.763-0.326c-0.473-0.214-0.946-0.466-1.42-0.719
		c-0.481-0.236-0.979-0.519-1.483-0.747c-0.551-0.249-1.126-0.528-1.671-0.794c-0.512-0.251-1.048-0.493-1.567-0.729
		c-1.386-0.627-2.704-1.109-3.927-1.132c-0.2,0.023-0.875,0.174-1.221,0.017c-0.315-0.143-0.449-0.393-0.263-0.802
		c0.57-1.26,3.661-0.544,5.551,0.311L71.408,87.494z"/>
	<path fill="#DBB30E" d="M87.469,73.122c-0.428,0.921-2.168,0.401-3.298,0.075l-0.232-0.067c-0.515-0.148-1.075-0.328-1.603-0.498
		c-0.493-0.16-1.137-0.364-1.635-0.508l-0.167-0.048c-0.306,0.686-0.604,1.41-0.814,2.141c-0.331,1.147-0.477,2.275-0.101,3.031
		c0.296,0.535,1.178,1.221,2.158,1.504c0.765,0.221,1.451,0.148,2.159,0.064c0.093-0.009,0.219-0.009,0.312-0.018
		c-0.038,0.007,0.021-0.012,0.085-0.048c0.25-0.054,0.552-0.165,0.801-0.093c0.3,0.086,0.572,0.453,0.433,0.935
		c-0.45,0.626-1.22,0.674-1.914,0.708l-0.033-0.01c-0.071-0.002-0.113,0.021-0.168,0.023c-0.694,0.034-1.592,0.027-2.307-0.18
		c-1.047-0.301-2.387-1.336-2.836-2.275c-0.562-1.17-0.426-2.642,0.01-4.154c0.192-0.665,0.453-1.381,0.728-2.022
		c-0.261-0.093-0.672-0.229-0.954-0.311c-2.16-0.623-3.783-0.551-4.788,1.373l0.005-0.017c-0.095,0.207-0.169,0.401-0.213,0.551
		c-0.364,1.263-0.04,2.634,0.703,3.244l-0.017-0.005c0.028,0.026,0.062,0.036,0.107,0.067c0.415,0.245,0.797,0.481,0.644,1.014
		c-0.129,0.448-0.586,0.533-1.001,0.412c-0.964-0.277-1.591-1.412-1.857-2.299c-0.259-0.849-0.207-1.841,0.057-2.755
		c0.881-3.057,2.974-4.074,6.613-3.024c0.183,0.053,0.344,0.117,0.526,0.17l0.516,0.148c0.366,0.105,0.72,0.189,1.073,0.273
		c0.32,0.074,0.736,0.194,1.035,0.28c0.365,0.105,0.727,0.228,1.054,0.34c0.344,0.118,0.639,0.22,0.971,0.316l1.296,0.374
		c0.715,0.206,1.423,0.374,2.095,0.352l0.116,0.033c0.017,0.005,0.055-0.002,0.071,0.002c0.398,0.115,0.458,0.348,0.399,0.799
		L87.469,73.122z"/>
	<path fill="#DBB30E" d="M69.874,70.802c0.065-0.146,0.125-0.345,0.189-0.491c0.042-0.115-0.027,0.047,0.042-0.115l-0.423-0.087
		c-0.617-0.092-1.745-0.36-0.993-1.265c0.235-0.287,0.639-0.274,1.096-0.18c0.136,0.028,0.318,0.083,0.471,0.115
		c0.318,0.083,0.674,0.157,0.99,0.169c0.237,0.049,0.277,0.11,0.388,0.256c0.249,0.422,0.09,0.849-0.13,1.315
		c-0.062,0.128-0.11,0.277-0.179,0.44l0.003-0.017c-0.362,0.985-0.697,1.922-0.9,2.993c-0.066,0.322-0.085,0.671-0.104,1.021
		c-0.026,0.383-0.021,0.702-0.15,1.241c-0.116,0.135-0.782,0.279-1.16-0.027c-0.119-1.049-0.045-2.093,0.165-3.109
		c0.084-0.407,0.071-0.515,0.206-0.911c-0.135-0.028-0.22-0.045-0.325-0.05c-0.342-0.053-0.61-0.125-0.741-0.259
		c-0.975-1.437,0.496-1.205,1.505-1.049L69.874,70.802z"/>
	<path fill="#DBB30E" d="M79.263,64.505c0.143-0.036,0.285-0.054,0.405-0.041c0.292,0.034,0.517,0.199,0.691,0.341l-0.015-0.02
		c0.079,0.062,0.259,0.169,0.259,0.169c0.806,0.406,2.032,0.792,3.424,0.953c1.203,0.139,2.803-0.146,3.333-1.27
		c0.141-0.314,0.263-0.771,0.316-1.234c0.147-1.271-0.05-2.13-0.705-2.641c-0.656-0.494-2.179-1.035-2.983-1.146l-0.653-0.075
		c-0.344-0.04-0.722-0.083-1.08-0.142c-0.359-0.059-0.735-0.12-1.113-0.164c-0.481-0.056-1-0.081-1.507-0.069l0.018,0.002
		c-0.176,0.015-0.315,0.016-0.511,0.045c-0.142,0.019-0.354,0.046-0.529,0.061l0.02-0.015c-0.071,0.009-0.124,0.021-0.178,0.032
		c-0.913,0.068-1.334,0.089-2.054,0.895c-0.641,0.727-0.745,1.028-0.848,1.921c-0.085,0.739,0.095,1.892,0.392,2.64
		c0.066,0.182,0.261,0.448,0.461,0.68c0.304,0.383,0.604,0.801,0.562,1.162c-0.016,0.137-0.235,0.687-0.733,0.629
		c-0.602-0.069-1.644-1.6-1.977-2.788c-0.241-0.933-0.284-1.913-0.181-2.807c0.167-1.443,0.992-2.41,1.99-3.217
		c0.671-0.532,1.25-0.569,2.285-0.642c1.123-0.079,1.825-0.12,2.925,0.007l1.992,0.23c1.014,0.117,3.857,0.672,4.854,1.849
		c0.442,0.539,0.669,0.844,0.914,1.585c0.082,0.793,0.1,1.544,0.024,2.197c-0.358,3.11-2.644,4.047-5.427,3.726
		c-1.409-0.163-2.626-0.478-3.718-1.125c-0.064-0.042-0.148-0.069-0.216-0.095l0.018,0.002c-0.438-0.277-0.926-0.577-0.868-1.075
		c0.018-0.155,0.089-0.32,0.246-0.477L79.263,64.505z"/>
	<path fill="#DBB30E" d="M74.951,49.121c0.36-0.889,1.646-1.368,2.803-1.441c0.949-0.06,2.118,0.058,3.255,0.229
		c0.769,0.107,1.482,0.167,2.18,0.227c1.135,0.137,2.252,0.274,3.497,0.508c0.123,0.027,0.316,0.067,0.439,0.094
		c1.172,0.187,2.257,0.361,2.353,1.879c0.085,1.346-1.181,2.171-2.317,2.831c-1.394,0.711-3.157,1.584-4.793,1.756
		c-0.432,0.027-0.645-0.341-0.665-0.668c-0.016-0.242,0.091-0.474,0.291-0.607c0.321-0.124,0.966-0.338,1.526-0.512
		c0.426-0.131,0.832-0.277,1.339-0.482c1.114-0.469,2.166-1.106,3.007-1.783c0.132-0.112,0.225-0.292,0.211-0.499
		c-0.024-0.397-0.653-0.479-1.143-0.535l0.018-0.001c-0.156-0.008-0.26-0.001-0.417-0.026c-0.803-0.088-1.572-0.196-2.307-0.306
		c-0.245-0.037-0.489-0.073-0.752-0.109c-0.591-0.032-1.254-0.112-1.883-0.193l0.017-0.001c-1.207-0.185-2.447-0.349-3.518-0.282
		c-0.828,0.052-1.934,0.104-1.871,1.105c0.023,0.362,0.149,0.718,0.346,0.81l-0.019-0.017c0.108,0.063,0.177,0.059,0.247,0.071
		l-0.019-0.016c0.386,0.062,0.737,0.145,0.772,0.714c0.022,0.345-0.078,0.403-0.158,0.512c-0.032,0.037-0.402,0.216-0.575,0.227
		c-1.259,0.079-1.934-1.005-2.018-2.351c-0.025-0.397,0.035-0.816,0.155-1.119L74.951,49.121z"/>
</g>
<g>
</g>
<g>
</g>
<g>
</g>
<g>
</g>
<g>
</g>
<g>
</g>
</svg>
